<svg xmlns="http://www.w3.org/2000/svg"
shape-rendering="geometricPrecision"
width="4000" height="4000" viewBox="0 0 1024 1024">
  <metadata>null</metadata>

<path d="
M 0.012 3.484
C 0.764 4.015 0.538 5.155 0.527 5.989
C 0.501 7.988 0.486 9.989 0.483 11.988
C 0.482 12.782 0.804 14.072 0.003 14.483
C 0.001 10.819 -0.064 7.147 0.012 3.484 Z"
opacity="0.988" fill="rgb(178,184,186)" fill-rule="evenodd" />
<path d="
M -0.002 267.482
C 0.785 267.928 0.488 269.175 0.486 269.99
C 0.48 272.656 0.484 275.323 0.479 277.989
C 0.457 288.989 0.497 299.989 0.464 310.989
C 0.33 356.823 0.521 402.661 0.532 448.495
C 0.566 587.829 0.532 727.162 0.532 866.496
C 0.532 904.496 0.513 942.496 0.531 980.496
C 0.536 990.659 0.618 1000.825 0.496 1010.987
C 0.462 1013.821 0.483 1016.655 0.476 1019.489
C 0.472 1021.143 0.202 1022.524 1.005 1023.948
C 0.843 1023.961 0.125 1024.092 -0.002 1023.994
C -0.088 1023.928 -0.027 1022.894 -0.025 1022.812
C 0.004 1021.701 0.001 1020.592 0.006 1019.48
C 0.025 1014.481 0.007 1009.481 0.012 1004.482
C 0.035 982.982 0.014 961.482 0.017 939.983
C 0.023 883.983 0.005 827.982 0.015 771.982
C 0.046 603.815 -0.002 435.649 -0.002 267.482 Z"
opacity="0.988" fill="rgb(178,184,186)" fill-rule="evenodd" />
<path d="
M 253.004 0.015
C 497.503 0.134 742.005 0.166 986.504 0.016
C 985.92 1.044 982.106 0.418 980.989 0.409
C 975.156 0.361 969.32 0.391 963.486 0.394
C 939.155 0.406 914.823 0.456 890.492 0.408
C 789.66 0.211 688.821 0.272 587.989 0.42
C 502.655 0.545 417.32 0.305 331.986 0.388
C 311.82 0.407 291.654 0.352 271.488 0.401
C 266.822 0.413 262.155 0.39 257.488 0.396
C 256.655 0.398 253.232 0.918 253.004 0.015 Z"
opacity="1" fill="rgb(141,169,145)" fill-rule="evenodd" />
<path d="
M 310.196 528.226
C 316.153 527.474 322.499 528.433 328.506 528.437
C 332.339 528.439 336.173 528.423 340.006 528.39
C 342.614 528.368 345.22 528.332 347.827 528.288
C 361.889 528.051 380.992 528.706 387.186 544.097
C 388.123 546.426 388.647 548.906 388.826 551.407
C 389.061 554.686 388.623 557.989 387.676 561.13
C 385.916 566.971 382.588 572.365 378.171 576.576
C 375.95 578.693 372.366 580.399 370.675 582.88
C 376.776 591.996 382.929 601.023 389.458 609.843
C 394.138 616.165 399.42 623.367 406.089 627.734
C 408.94 629.601 412.013 630.125 415.046 631.463
C 415.123 632.578 415.172 633.715 414.75 634.774
C 410.844 635.4 406.931 635.238 403.008 634.986
C 396.455 634.565 389.313 634.01 383.588 630.471
C 377.094 626.455 372.145 618.843 368.18 612.479
C 365.188 607.677 362.248 602.831 359.413 597.934
C 358.2 595.838 357.006 592.758 355.071 591.243
C 351.067 590.562 346.379 590.565 342.344 590.921
C 341.558 593.264 342.108 596.523 342.084 598.993
C 342.024 605.332 342.073 611.671 342.165 618.008
C 342.206 620.775 341.707 624.999 343.56 627.314
C 345.877 630.208 350.329 629.343 353.474 630.51
C 353.874 631.734 353.157 633.507 353.638 634.619
C 350.639 633.792 346.614 634.338 343.498 634.281
C 336.157 634.147 328.837 634.121 321.495 634.308
C 318.979 634.372 316.465 634.517 313.95 634.58
C 313.056 634.602 311.693 634.998 310.87 634.694
C 310.8 633.254 310.773 631.819 310.932 630.384
C 313.426 630.075 317.242 630.058 319.164 628.218
C 320.851 626.602 320.888 623.834 321.014 621.669
C 321.337 616.131 321.174 610.548 321.184 605.003
C 321.212 588.356 321.153 571.709 321.182 555.061
C 321.19 550.802 321.178 546.543 321.122 542.284
C 321.094 540.134 321.2 537.452 319.886 535.621
C 317.499 532.295 313.476 533.595 310.277 532.242
C 310.068 530.894 310.114 529.583 310.196 528.226 Z
M 341.988 536.969
C 341.241 543.838 341.862 551.097 341.879 558.007
C 341.897 565.612 341.359 573.434 341.958 581.012
C 343.632 581.874 346.635 581.677 348.507 581.743
C 355.89 582.004 362.292 580.493 365.726 573.312
C 369.189 566.073 369.255 556.339 366.43 548.881
C 365.399 546.158 364.079 543.412 361.948 541.365
C 357.048 536.66 348.719 535.357 342.249 536.648
C 342.162 536.755 342.075 536.862 341.988 536.969 Z"
opacity="1" fill="rgb(51,97,143)" fill-rule="evenodd" />
<path d="
M 318.976 694.104
C 319.443 690.662 320.206 687.435 322.03 684.426
C 329.233 672.536 346.677 671.709 358.636 675.811
C 359.028 676.443 358.708 677.743 358.67 678.481
C 358.576 680.308 358.48 682.182 358.626 684.007
C 358.665 684.493 358.987 686.156 358.509 686.391
C 357.849 686.585 357.191 686.749 356.508 686.835
C 355.598 684.415 355.972 682.495 353.893 680.453
C 348.644 675.3 337.817 676.148 332.97 681.375
C 328.598 686.09 327.931 692.872 329.001 698.97
C 329.88 703.978 332.583 708.884 336.888 711.728
C 341.719 714.92 349.767 716.062 354.397 711.879
C 355.972 710.456 356.769 708.225 357.445 706.274
C 358.081 706.381 358.697 706.494 359.25 706.834
C 359.344 709.308 358.586 713.988 357.376 716.174
C 356.416 716.988 355.168 717.12 353.972 717.346
C 351.272 717.856 348.519 718.114 345.769 718.187
C 334.22 718.492 322.053 713.398 319.374 701.128
C 318.877 698.854 318.774 696.417 318.976 694.104 Z"
opacity="1" fill="rgb(54,96,134)" fill-rule="evenodd" />
<path d="
M 370.435 694.607
C 371.144 686.018 376.416 678.424 384.559 675.383
C 397.225 670.653 413.625 676.165 416.532 690.369
C 416.915 692.237 417.246 694.401 417.053 696.309
C 416.387 702.889 414.109 709.237 408.659 713.385
C 396.144 722.911 375.415 718.328 371.014 702.44
C 370.309 699.894 370.219 697.226 370.435 694.607 Z
M 379.993 693.631
C 379.863 700.553 382.463 708.679 388.245 712.868
C 389.509 713.783 391.021 714.483 392.538 714.85
C 393.782 715.152 395.044 715.3 396.324 715.23
C 404.429 714.79 407.196 706.477 407.384 699.56
C 407.569 692.774 405.767 684.902 400.44 680.297
C 399.081 679.123 397.546 678.266 395.834 677.729
C 394.475 677.302 393.003 677.118 391.58 677.137
C 382.854 677.253 380.129 686.435 379.993 693.631 Z"
opacity="1" fill="rgb(53,94,133)" fill-rule="evenodd" />
<path d="
M 372.479 356.114
C 373.573 347.796 374.278 339.639 376.272 331.449
C 380.112 315.673 387.298 300.351 396.536 287.033
C 407.933 270.604 422.819 256.897 439.705 246.278
C 453.544 237.575 468.786 232.568 484.622 229.012
C 498.623 225.867 512.886 226.252 527.045 227.609
C 541.218 228.968 555.334 233.247 568.175 239.314
C 583.395 246.506 597.8 256.313 609.562 268.431
C 622.477 281.737 632.965 297.72 639.825 314.951
C 653.514 349.333 652.065 389.506 636.715 423.062
C 630.666 436.285 622.632 448.456 612.7 459.086
C 602.713 470.782 589.864 480.71 576.354 487.977
C 544.697 505.004 507.436 509.497 472.786 499.45
C 412.027 481.833 366.658 419.908 372.479 356.114 Z
M 375.48 357.616
C 374.394 374.869 376.507 393.013 382.416 409.305
C 398.029 452.35 434.887 487.457 479.91 497.98
C 496.7 501.904 514.089 502.734 531.136 500.081
C 538.837 498.882 546.214 496.722 553.64 494.448
C 555.414 493.838 557.154 493.158 558.89 492.447
C 579.306 483.818 597.209 471.637 611.963 454.982
C 622.239 443.381 631.123 429.845 636.657 415.293
C 645.729 391.436 648.408 365.735 644.074 340.576
C 635.341 289.898 594.504 248.392 545.858 234.312
C 519.823 226.776 490.713 228.371 465.31 237.402
C 457.962 240.014 451.257 243.641 444.357 247.208
C 440.257 249.328 436.578 252.12 432.793 254.733
C 419.593 263.849 408.602 275.616 399.366 288.647
C 389.709 302.274 382.248 318.466 378.603 334.801
C 376.91 342.389 376.422 349.941 375.48 357.616 Z"
opacity="1" fill="rgb(106,172,196)" fill-rule="evenodd" />
<path d="
M 379.002 353.616
C 380.215 345.204 381.392 336.943 383.661 328.722
C 386.031 320.137 389.686 311.753 393.791 303.868
C 396.372 298.43 399.896 293.026 403.552 288.251
C 412.953 274.667 425.191 263.759 438.696 254.418
C 450.69 246.121 464.696 240.156 478.832 236.669
C 494.753 232.742 510.844 232.175 527.085 233.928
C 575.919 239.199 619.583 275.629 635.604 321.682
C 645.355 349.708 645.282 381.063 635.598 409.096
C 629.809 425.854 620.094 441.749 608.113 454.785
C 580.884 484.413 541.411 501.387 500.969 498.196
C 448.073 494.024 401.482 456.437 384.759 406.273
C 381.622 396.864 379.916 386.868 379.088 377.006
C 378.44 369.278 378.175 361.342 379.002 353.616 Z
M 385.478 360.616
C 384.86 371.219 385.93 382.36 388.323 392.696
C 393.194 413.735 403.195 432.966 417.394 449.237
C 444.655 480.473 488.938 496.5 529.815 489.995
C 558.194 485.479 583.997 470.843 603.486 449.912
C 610.237 442.663 615.788 434.03 620.74 425.491
C 629.839 409.803 634.661 391.17 635.738 373.155
C 636.777 355.783 634.387 337.997 628.2 321.69
C 613.544 283.067 579.69 252.807 539.42 243.163
C 525.706 239.879 511.527 239.091 497.51 240.489
C 473.363 242.897 451.34 252.972 432.281 267.673
C 419.139 277.809 408.077 291.708 400.218 306.282
C 391.218 322.972 386.576 341.773 385.478 360.616 Z"
opacity="1" fill="rgb(99,172,206)" fill-rule="evenodd" />
<path d="
M 390.97 358.115
C 391.808 341.762 396.482 325.307 403.84 310.724
C 410.138 298.241 418.853 287.469 428.889 277.819
C 435.991 270.991 444.074 265.026 452.658 260.205
C 494.362 236.784 547.427 241.447 584.844 271.07
C 601.905 284.576 614.043 302.07 622.441 321.967
C 628.47 336.252 631.395 353.484 630.593 368.984
C 629.647 387.25 625.753 405.428 616.896 421.609
C 607.985 437.891 595.813 451.592 581.155 462.914
C 571.485 470.384 560.112 475.881 548.622 479.865
C 537.203 483.825 525.207 485.673 513.162 485.993
C 461.643 487.366 414.821 453.004 397.438 405.124
C 391.998 390.141 390.157 373.97 390.97 358.115 Z
M 394.957 355.619
C 393.578 372.202 395.672 389.131 401.452 404.753
C 407.458 420.986 416.7 435.832 428.894 448.158
C 448.952 468.433 477.388 480.795 505.795 482.253
C 520.491 483.007 535.03 480.393 548.955 475.85
C 563.355 471.152 576.234 462.566 587.563 452.722
C 598.463 443.252 607.425 431.783 614.08 418.964
C 620.714 406.183 625.172 391.627 626.299 377.242
C 627.701 359.347 625.979 341.209 619.411 324.386
C 612.205 305.928 600.691 289.436 585.645 276.497
C 554.6 249.802 509.927 241.976 471.557 255.739
C 458.267 260.506 446.142 267.937 435.444 277.089
C 424.08 286.81 414.795 298.499 407.786 311.684
C 400.633 325.138 396.218 340.458 394.957 355.619 Z"
opacity="1" fill="rgb(37,59,84)" fill-rule="evenodd" />
<path d="
M 396.404 771.092
C 397.316 766.745 398.884 762.801 401.905 759.451
C 410.008 750.464 425.737 750.268 436.458 754.104
C 436.731 754.907 436.309 756.419 436.267 757.283
C 436.144 759.783 436.319 762.27 436.257 764.766
C 435.775 764.825 434.617 765.08 434.231 764.747
C 433.73 764.315 433.754 762.712 433.576 762.096
C 433.162 760.667 432.341 759.334 431.25 758.323
C 428.238 755.532 423.442 754.896 419.491 755.22
C 402.593 756.607 401.946 780.87 413.542 789.385
C 418.376 792.934 426.497 794.534 431.614 790.547
C 433.473 789.098 434.464 786.827 435.212 784.657
C 435.936 784.781 436.707 784.758 437.188 785.366
C 436.752 787.425 436.403 789.502 435.988 791.567
C 435.761 792.698 435.696 793.966 434.73 794.712
C 431.489 796.196 427.294 796.304 423.79 796.365
C 411.568 796.578 398.719 791.682 396.498 778.225
C 396.115 775.904 396.051 773.422 396.404 771.092 Z"
opacity="1" fill="rgb(51,95,133)" fill-rule="evenodd" />
<path d="
M 421.737 630.312
C 424.676 629.723 428.173 629.372 430.692 627.608
C 432.875 626.08 434.003 623.051 435.074 620.718
C 437.566 615.294 439.554 609.659 441.782 604.129
C 447.213 590.645 452.354 577.042 457.717 563.531
C 462.472 551.554 467.477 539.564 471.44 527.298
C 473.77 526.721 477.131 526.485 479.53 526.651
C 481.375 533.135 484.49 539.3 486.803 545.631
C 493.315 563.462 500.596 581.089 507.653 598.713
C 510.261 605.225 512.635 611.868 515.487 618.28
C 516.849 621.345 518.153 624.965 520.792 627.188
C 523.549 629.511 526.928 629.112 530.05 630.401
C 530.066 631.796 529.992 633.088 529.885 634.477
C 524.373 635.34 518.082 634.28 512.509 634.158
C 504.896 633.993 497.245 634.657 489.643 634.394
C 489.345 633.245 489.328 632.134 489.267 630.951
C 490.671 629.277 494.008 630.227 495.102 627.697
C 496.001 625.618 493.838 622.1 493.159 620.158
C 490.792 613.378 488.142 606.695 485.976 599.852
C 485.139 599.459 483.925 599.675 482.998 599.682
C 480.999 599.697 478.999 599.688 476.999 599.695
C 469.625 599.718 462.245 599.644 454.873 599.727
C 453.769 601.541 453.252 603.76 452.532 605.75
C 451.112 609.675 449.747 613.609 448.392 617.557
C 447.446 620.313 445.999 623.621 446.305 626.576
C 447.581 629.937 452.978 628.949 455.683 630.219
C 455.935 631.539 455.498 633.001 455.76 634.276
C 444.444 634.509 433.166 633.314 421.844 634.521
C 421.237 633.48 421.639 631.487 421.737 630.312 Z
M 458.434 589.057
C 458.269 589.676 458.109 590.079 458.22 590.713
C 464.023 590.191 470.166 590.713 476.004 590.728
C 477.502 590.732 478.995 590.664 480.493 590.642
C 481.01 590.635 482.122 590.835 482.53 590.517
C 479.798 582.345 476.676 574.292 473.99 566.104
C 473.249 563.847 472.588 561.544 471.809 559.302
C 471.532 558.505 471.196 557.225 470.486 556.765
C 468.451 558.576 467.877 563.41 466.93 565.953
C 464.088 573.59 461.73 581.611 458.434 589.057 Z"
opacity="1" fill="rgb(50,97,142)" fill-rule="evenodd" />
<path d="
M 426.467 301.087
C 427.085 299.672 427.944 298.397 429.643 298.638
C 433.175 301.686 435.834 306.515 438.517 310.318
C 439.499 311.708 440.459 314.082 441.852 315.048
C 445.489 314.344 449.144 314.069 452.829 313.756
C 453.8 312.689 453.934 310.864 454.443 309.547
C 455.172 307.66 456.246 306.106 457.249 304.39
C 457.154 303.338 455.498 301.893 454.864 301.019
C 452.548 297.832 450.155 294.786 447.622 291.77
C 446.383 290.295 444.199 288.417 444.831 286.306
C 446.9 284.078 451.532 285.468 454.119 286.09
C 462.15 288.021 471.587 291.873 475.645 299.583
C 478.675 305.341 478.361 311.79 479.296 318.05
C 479.918 322.214 481.437 326.092 483.625 329.676
C 485.579 332.879 488.117 335.346 490.66 338.062
C 495.457 343.187 500.465 348.098 505.375 353.117
C 518.71 366.746 531.849 380.703 545.605 393.925
C 548.912 397.103 552.596 400.505 557.08 401.876
C 563.124 403.723 569.766 402.514 575.473 405.433
C 582.076 408.811 585.261 416.313 586.702 423.182
C 587.487 426.922 587.843 430.765 587.846 434.586
C 587.847 436.298 588.016 437.803 586.522 438.941
C 586.073 439.138 585.887 439.213 585.413 439.064
C 583.433 438.038 581.879 435.767 580.475 434.088
C 577.718 430.792 574.876 427.559 572.121 424.268
C 571.174 423.99 569.99 424.374 569.043 424.591
C 566.897 425.081 563.767 425.636 561.988 426.974
C 560.525 429.07 560.063 432.01 558.942 434.327
C 558.655 434.861 558.385 435.39 558.275 435.987
C 558.974 437.411 560.27 438.593 561.299 439.79
C 563.416 442.251 565.379 444.847 567.569 447.245
C 568.807 448.601 571.197 450.379 570.611 452.427
C 569.042 454.534 565.538 453.621 563.361 453.227
C 556.594 452 550.428 449.262 545.263 444.662
C 537.37 437.632 541.399 426.911 537.43 418.113
C 535.757 414.404 533.134 411.699 530.537 408.649
C 525.409 402.626 519.585 397.113 513.977 391.539
C 508.797 386.39 503.781 381.135 498.706 375.905
C 495.173 372.264 491.341 368.907 487.935 365.135
C 484.459 361.286 480.79 357.671 477.199 353.929
C 473.829 350.418 470.509 346.659 466.439 343.925
C 461.705 340.746 456.063 338.528 450.441 337.55
C 444.447 336.509 438.199 336.63 433.601 331.912
C 428.075 326.241 426.607 316.586 426.241 309.016
C 426.117 306.451 425.865 303.604 426.467 301.087 Z
M 456.006 289.48
C 454.843 289.257 453.688 289.01 452.511 288.872
C 451.035 288.626 449.619 288.131 448.118 288.028
C 448.331 288.931 449.628 289.898 450.218 290.662
C 452.335 293.404 454.505 296.14 456.693 298.829
C 457.659 300.017 459.418 301.516 459.746 303.06
C 459.991 304.219 459.312 305.407 458.865 306.432
C 457.895 308.81 456.808 311.175 455.802 313.542
C 455.433 314.41 455.154 315.56 454.25 315.987
C 450.994 316.764 447.225 316.869 443.884 317.21
C 442.319 317.37 440.797 317.699 439.586 316.488
C 436.443 313.344 434.155 308.943 431.765 305.226
C 431.285 304.48 429.685 301.717 428.829 302.088
C 428.897 313.12 428.87 328.57 441.391 333.182
C 443.028 333.785 444.761 333.959 446.503 333.965
C 448.894 333.973 450.673 333.278 452.787 332.281
C 454.523 331.462 457.619 330.658 458.889 329.26
C 457.689 327.17 455.327 325.832 454.389 323.499
C 455.807 320.923 459.091 319.045 461.351 317.199
C 462.47 316.284 463.566 315.017 464.975 314.591
C 466.605 315.156 467.791 316.315 469.056 317.442
C 469.485 317.825 470.182 318.732 470.719 318.38
C 471.526 317.37 472.012 316.12 472.895 315.126
C 473.753 314.161 475.111 313.314 475.425 311.99
C 475.805 310.383 475.35 308.591 475.064 307.008
C 473.347 297.527 464.759 291.898 456.006 289.48 Z
M 560.121 449.791
C 561.35 450.842 564.06 450.333 565.58 450.662
C 565.903 450.753 567.444 451.367 567.504 450.881
C 564.973 447.852 562.322 444.823 559.72 441.845
C 558.525 440.478 556.725 438.902 556.243 437.093
C 555.484 434.249 557.83 430.54 558.706 427.883
C 559.079 426.752 559.283 425.406 559.973 424.427
C 562.653 422.933 566.749 422.395 569.753 421.795
C 570.981 421.55 572.255 421.234 573.464 421.698
C 576.417 425.092 579.226 428.613 582.076 432.096
C 582.678 432.833 584.218 435.517 585.224 435.391
C 585.409 433.442 585.003 431.582 584.794 429.658
C 583.78 420.327 581.102 410.739 571.423 407.075
C 568.194 405.852 564.365 406.784 560.999 406.314
C 555.602 405.56 550.813 402.945 546.702 399.455
C 543.451 396.695 540.579 393.394 537.695 390.259
C 531.842 383.895 525.878 377.543 519.651 371.546
C 511.176 363.385 503.011 354.982 494.801 346.559
C 489.93 341.562 484.776 336.905 480.976 330.983
C 478.843 327.659 477.666 324.192 476.936 320.32
C 476.641 318.752 476.762 316.111 476.018 314.738
C 474.285 316.044 472.411 317.586 471.414 319.538
C 472.834 321.358 474.363 323.121 475.646 325.044
C 476.034 325.627 476.908 326.57 476.624 327.283
C 473.712 330.825 469.51 334.302 465.473 336.482
C 464.742 336.277 464.065 335.397 463.575 334.842
C 462.213 333.302 460.808 331.69 459.52 330.096
C 457.037 331.363 454.196 333.064 451.866 334.629
C 451.958 335.389 455.881 335.965 456.718 336.224
C 461.756 337.784 466.64 340.17 470.749 343.503
C 477.954 349.347 484.337 356.7 490.666 363.48
C 498.324 371.685 506.683 379.25 514.288 387.502
C 519.754 393.434 525.666 398.943 531.112 404.891
C 534.118 408.173 537.424 411.615 539.501 415.582
C 541.933 420.23 542.126 424.896 542.566 429.997
C 542.787 432.56 542.565 435.391 543.653 437.796
C 545.674 442.267 549.823 445.105 554.014 447.346
C 555.893 448.35 557.974 449.552 560.121 449.791 Z
M 462.354 330.634
C 462.903 331.349 464.03 332.443 464.992 332.361
C 465.957 331.749 463.45 329.93 463.007 329.49
C 461.778 327.504 459.105 324.23 456.857 323.396
C 456.647 324.266 457.349 324.952 457.796 325.664
C 458.899 327.42 460.545 329.57 462.354 330.634 Z
M 458.953 321.473
C 458.605 322.119 458.729 323.302 459.479 323.608
C 459.91 323.357 460.958 321.955 461.501 321.965
C 462.223 321.979 462.737 323.133 463.12 323.602
C 464.566 325.373 466.233 326.962 467.617 328.8
C 468.01 329.019 469.77 329.824 469.328 328.773
C 467.984 326.814 466.453 324.989 464.778 323.306
C 463.836 322.36 462.414 321.666 461.913 320.401
C 461.734 319.347 462.392 319.246 463.262 319.524
C 465.507 321.302 466.969 324.388 469.105 326.404
C 469.477 326.755 471.142 328.552 471.58 327.806
C 472.005 327.08 469.931 325.229 469.497 324.702
C 467.602 322.391 465.908 319.512 463.746 317.478
C 463.417 317.168 462.511 318.051 462.275 318.234
C 461.765 318.825 461.254 319.43 460.675 319.952
C 460.167 320.537 459.666 321.139 458.953 321.473 Z
M 460.885 323.939
C 460.434 325.859 463.652 327.893 464.742 329.25
C 465.183 329.798 465.937 330.892 466.727 330.319
C 466.997 329.471 466.362 329.086 465.86 328.464
C 464.71 327.04 462.797 323.989 460.885 323.939 Z
M 464.964 316.928
C 465.609 319.354 468.827 321.879 470.45 323.803
C 471.171 324.657 471.79 325.452 472.989 325.44
C 472.984 324.553 472.35 324.144 471.84 323.492
C 470.453 321.72 469.172 320.037 467.638 318.369
C 466.884 317.55 466.16 316.562 464.964 316.928 Z"
opacity="1" fill="rgb(27,51,76)" fill-rule="evenodd" />
<path d="
M 427.779 715.815
C 429.099 715.354 430.419 715.445 431.749 715.127
C 433.45 706.326 434.214 697.375 435.377 688.49
C 435.692 686.085 435.885 683.674 436.015 681.25
C 436.076 680.118 436.351 678.822 435.736 677.812
C 434.314 676.625 432.49 677.02 431.128 676.127
C 430.636 675.805 431.084 674.613 431.373 674.342
C 433.87 674.526 436.304 674.826 438.821 674.665
C 439.784 674.603 441.49 674.073 442.347 674.458
C 445.3 682.374 449.258 689.988 452.764 697.672
C 453.654 699.623 454.486 701.6 455.382 703.548
C 455.608 704.039 455.902 705.469 456.386 705.627
C 460.603 695.302 465.178 684.906 469.942 674.819
C 470.685 674.333 472.102 674.743 473.001 674.77
C 475.443 674.843 478.293 674.254 480.676 674.638
C 481.178 674.719 480.973 676.096 480.977 676.465
C 480.078 677.203 477.834 676.984 476.675 677.469
C 475.737 680.573 476.888 684.74 477.191 687.916
C 477.774 694.028 478.398 700.143 479.123 706.241
C 479.439 708.903 479.371 711.87 480.425 714.364
C 481.555 715.57 483.425 715.624 484.946 716.052
C 485.287 716.543 485.172 716.956 485.093 717.522
C 484.418 718.033 481.869 717.447 480.998 717.439
C 477.906 717.408 474.768 717.245 471.68 717.393
C 470.671 717.441 468.711 718.108 467.845 717.581
C 467.729 715.688 469.189 715.303 470.789 714.934
C 471.213 712.984 470.643 710.479 470.46 708.5
C 470.034 703.879 469.568 699.242 469.286 694.611
C 469.184 692.94 469.03 691.275 469.009 689.613
C 469.003 689.182 469.028 688.266 468.604 688.094
C 464.913 695.769 461.26 703.504 457.72 711.255
C 456.908 713.034 455.904 714.73 455.167 716.541
C 454.845 717.334 454.675 718.344 453.662 718.311
C 451.961 717.362 450.54 713.376 449.838 711.612
C 447.614 706.028 444.795 700.67 442.43 695.147
C 441.761 693.585 441.189 691.995 440.513 690.438
C 440.21 689.743 440.187 688.948 439.491 688.538
C 438.824 694.604 438.381 700.711 437.768 706.787
C 437.53 709.153 436.606 712.693 437.492 714.949
C 438.817 715.551 440.394 715.398 441.704 715.961
C 441.896 716.491 441.914 717.177 441.796 717.729
C 438.525 717.327 435.149 717.289 431.855 717.377
C 430.976 717.4 428.859 717.981 428.085 717.524
C 427.479 717.165 427.708 716.357 427.779 715.815 Z"
opacity="1" fill="rgb(49,93,133)" fill-rule="evenodd" />
<path d="
M 430.095 310.632
C 431.205 310.392 431.551 313.295 431.735 314.067
C 432.744 318.318 433.84 322.875 436.691 326.307
C 439.363 329.522 444.488 330.192 448.391 329.591
C 449.93 329.355 451.44 328.953 452.994 328.802
C 453.297 328.772 454.28 328.594 454.512 328.863
C 454.868 329.273 454.243 329.499 454.021 329.583
C 452.972 329.982 451.904 330.291 450.845 330.656
C 447.333 331.864 443.293 332.078 439.833 330.566
C 432.489 327.358 431.231 317.471 430.095 310.632 Z"
opacity="1" fill="rgb(55,70,95)" fill-rule="evenodd" />
<path d="
M 435.31 431.024
C 436.164 428.964 438.443 427.466 440.058 426.015
C 442.936 423.43 445.725 420.711 448.436 417.953
C 458.757 407.452 468.995 396.881 479.512 386.575
C 482.764 383.388 486.127 380.321 489.401 377.162
C 490.747 375.864 492.169 373.816 494.201 373.904
C 495.401 375.602 493.342 377.065 492.167 378.176
C 488.611 381.541 485 384.878 481.556 388.358
C 471.23 398.79 460.696 409.029 450.568 419.66
C 447.644 422.729 444.533 425.686 441.485 428.633
C 440.308 429.771 438.839 430.71 437.905 432.065
C 437.609 433.479 438.479 434.942 439.238 436.079
C 441.156 438.953 444.007 441.791 446.705 443.932
C 448.299 445.196 449.945 446.532 451.783 445.009
C 453.53 443.561 455.033 441.394 456.484 439.648
C 458.768 436.9 461.263 434.261 463.721 431.667
C 472.819 422.067 481.793 412.363 491.014 402.874
C 494.523 399.263 497.938 395.56 501.437 391.939
C 503.187 390.128 505.034 387.844 507.497 387.03
C 509.101 388.503 506.961 390.417 505.825 391.601
C 502.474 395.096 499.308 398.752 495.9 402.197
C 485.548 412.66 475.504 423.485 465.487 434.269
C 462.779 437.185 460.052 440.089 457.444 443.094
C 455.9 444.872 454.321 447.345 452.222 448.508
C 450.056 449.706 446.923 447.636 445.231 446.386
C 440.655 443.007 434.21 437.379 435.31 431.024 Z"
opacity="1" fill="rgb(26,53,74)" fill-rule="evenodd" />
<path d="
M 441.937 432.569
C 443.093 430.766 444.981 429.298 446.513 427.812
C 449.016 425.387 451.441 422.874 453.872 420.378
C 463.128 410.874 472.656 401.616 481.861 392.063
C 485.078 388.724 488.324 384.772 492.11 382.076
C 492.807 381.579 494.125 379.404 495.15 379.693
C 495.778 379.87 494.131 381.397 493.99 381.532
C 492.35 383.097 490.68 384.634 489.111 386.271
C 484.884 390.684 480.524 395.028 476.142 399.288
C 467.762 407.434 459.84 416.056 451.575 424.321
C 449.403 426.493 447.319 428.756 445.108 430.885
C 444.186 431.773 443.202 433.083 441.922 433.421
C 441.666 432.957 441.726 433.234 441.937 432.569 Z"
opacity="0.996" fill="rgb(55,78,82)" fill-rule="evenodd" />
<path d="
M 448.704 435.192
C 449.034 435.405 449.481 436.084 449.895 435.954
C 450.842 435.657 451.922 433.855 452.591 433.138
C 455.167 430.376 457.768 427.647 460.403 424.94
C 470.402 414.666 480.953 404.839 490.639 394.274
C 492.726 391.998 495.04 389.909 497.317 387.827
C 498.686 386.574 500.121 385.758 499.307 383.786
C 499.825 383.239 500.334 382.727 500.943 382.283
C 502.326 382.975 503.92 385.085 505.223 386.192
C 504.812 387.863 502.961 389.048 501.737 390.139
C 498.797 392.758 496.185 395.792 493.466 398.633
C 490.021 402.233 486.716 405.883 483.511 409.655
C 482.398 410.965 480.783 411.989 479.58 413.265
C 473.946 419.236 468.229 425.146 462.709 431.221
C 459.649 434.589 456.598 437.942 453.595 441.36
C 452.912 442.138 451.533 444.7 450.51 444.775
C 449.003 444.887 446.66 442.525 445.725 441.54
C 445.482 441.284 444.671 440.585 444.635 440.207
C 444.475 438.532 447.533 436.107 448.704 435.192 Z"
opacity="1" fill="rgb(31,61,95)" fill-rule="evenodd" />
<path d="
M 499.307 383.786
C 500.121 385.758 498.686 386.574 497.317 387.827
C 495.04 389.909 492.726 391.998 490.639 394.274
C 480.953 404.839 470.402 414.666 460.403 424.94
C 457.768 427.647 455.167 430.376 452.591 433.138
C 451.922 433.855 450.842 435.657 449.895 435.954
C 449.481 436.084 449.034 435.405 448.704 435.192
C 457.184 425.315 466.716 416.382 475.775 407.052
C 482.406 400.222 488.847 393.168 496.047 386.949
C 497.201 385.953 498.079 384.718 499.307 383.786 Z"
opacity="1" fill="rgb(162,186,198)" fill-rule="evenodd" />
<path d="
M 448.861 752.901
C 453.407 753.217 457.94 753.259 462.497 753.142
C 466.243 753.045 470.158 752.664 473.767 753.933
C 479.246 755.86 482.836 761.377 480.588 767.169
C 479.828 769.126 478.476 771.022 476.894 772.403
C 475.893 773.277 474.628 773.972 473.879 775.084
C 477.59 779.245 480.219 784.587 483.67 789.005
C 485.595 791.47 487.844 793.977 491.142 794.352
C 491.268 794.928 490.997 795.508 490.624 795.933
C 489.103 796.429 487.382 796.061 485.819 796.001
C 481.97 795.851 478.589 795.04 475.962 792.045
C 473.707 789.474 472.017 786.427 470.308 783.481
C 469.422 781.953 468.349 779.464 466.798 778.517
C 465.547 777.754 463.584 778.133 462.188 778.082
C 461.68 779.043 461.98 780.562 461.992 781.633
C 462.019 784.091 462.031 786.548 462.072 789.003
C 462.092 790.241 461.955 791.78 462.605 792.879
C 463.898 793.693 465.566 793.467 466.939 794.089
C 467.436 794.314 467.98 795.322 467.521 795.795
C 462.847 795.854 458.176 795.468 453.498 795.616
C 451.528 795.678 448.966 796.666 448.816 794.161
C 450.011 793.506 451.424 793.563 452.638 792.974
C 454.246 791.37 453.325 786.384 453.315 784.27
C 453.286 777.681 453.268 771.091 453.257 764.501
C 453.253 762.073 453.947 758.238 452.719 756.065
C 451.309 754.653 448.627 755.641 448.634 753.243
C 448.71 753.129 448.785 753.015 448.861 752.901 Z
M 461.893 756.342
C 461.86 760.559 461.786 764.777 461.846 769.001
C 461.87 770.748 461.62 772.714 461.946 774.427
C 464.496 774.318 467.89 774.956 470.001 773.156
C 473.65 770.044 473.771 761.378 470.097 758.255
C 467.672 756.194 464.897 756.192 461.893 756.342 Z"
opacity="1" fill="rgb(50,93,131)" fill-rule="evenodd" />
<path d="
M 452.511 288.872
C 453.688 289.01 454.843 289.257 456.006 289.48
C 456.13 289.913 455.738 290.504 456.105 290.864
C 456.539 291.289 457.448 291.226 457.987 291.416
C 459.803 292.056 461.618 292.863 463.28 293.833
C 468.359 296.799 474.455 302.502 473.921 309.08
C 473.85 309.952 473.607 311.034 473.268 311.841
C 473.25 311.885 472.857 312.743 472.694 312.652
C 471.767 312.141 472.254 308.965 472.183 308.034
C 471.964 305.133 470.333 301.792 468.417 299.633
C 465.47 296.311 461.308 294.074 457.419 292.071
C 455.776 291.225 452.953 290.923 452.511 288.872 Z"
opacity="1" fill="rgb(55,71,86)" fill-rule="evenodd" />
<path d="
M 477.425 342.548
C 478.516 339.777 482.181 338.023 484.902 339.593
C 488.187 341.489 490.719 345.118 493.358 347.772
C 506.837 361.321 519.869 375.336 533.432 388.79
C 535.735 391.076 537.908 393.499 540.186 395.814
C 541.551 397.201 543.254 398.515 544.297 400.174
C 545.44 401.994 545.692 404.97 544.058 406.587
C 538.26 412.321 531.798 402.909 528.245 399.067
C 515.65 385.444 502.183 372.661 489.362 359.249
C 485.978 355.709 482.467 352.197 479.254 348.504
C 477.806 346.84 476.528 344.827 477.425 342.548 Z
M 478.882 343.036
C 478.381 345 479.885 346.535 481.14 347.868
C 483.913 350.817 486.775 353.68 489.562 356.614
C 501.807 369.506 514.434 382.031 526.746 394.86
C 529.889 398.134 532.758 401.945 536.194 404.905
C 537.983 406.446 540.405 407.255 542.557 405.799
C 544.244 404.657 543.925 401.822 542.806 400.42
C 541.703 399.038 540.181 397.957 538.931 396.708
C 536.437 394.214 533.971 391.695 531.463 389.215
C 519.29 377.177 507.445 364.801 495.473 352.564
C 493.112 350.151 490.731 347.752 488.411 345.301
C 486.149 342.91 484.366 340.653 480.858 340.952
C 479.924 341.376 479.283 342.098 478.882 343.036 Z"
opacity="1" fill="rgb(29,52,74)" fill-rule="evenodd" />
<path d="
M 495.392 794.505
C 495.457 794.313 495.522 794.121 495.586 793.929
C 496.951 793.454 498.484 793.66 499.802 793.17
C 503.197 789.678 504.471 783.459 506.14 779.015
C 509.494 770.083 513.149 761.265 516.426 752.299
C 517.681 752.17 518.949 752.028 520.211 752.131
C 520.927 755.217 522.511 758.256 523.689 761.198
C 525.551 765.851 527.321 770.543 529.143 775.212
C 531.299 780.737 533.141 787.549 536.637 792.38
C 537.624 793.743 539.578 793.061 540.563 794.28
C 540.594 794.701 540.62 795.099 540.605 795.522
C 539.313 796.068 537.197 795.535 535.814 795.47
C 532.905 795.332 529.856 795.232 526.951 795.415
C 525.89 795.482 522.976 796.311 523.49 794.567
C 524.305 793.996 525.639 793.69 526.334 793.077
C 526.276 791.9 525.606 790.694 525.247 789.578
C 524.441 787.072 523.476 784.606 522.631 782.111
C 519.917 781.167 515.872 781.97 513.012 781.96
C 511.887 781.957 510.395 781.7 509.435 782.35
C 508.039 785.61 506.485 789.516 506.265 793.08
C 507.43 793.388 508.818 793.543 509.91 794.059
C 510.109 794.585 510.147 795.2 510.243 795.762
C 507.023 795.593 503.731 795.609 500.504 795.686
C 498.844 795.725 497.044 796.017 495.407 795.696
C 495.355 794.979 495.368 795.376 495.392 794.505 Z
M 511.464 777.071
C 511.245 777.709 511.374 777.342 511.07 778.17
C 514.276 778.577 517.707 778.371 520.932 778.238
C 521.054 777.24 520.256 775.736 519.886 774.798
C 519.168 772.979 518.647 771.088 518 769.244
C 517.679 768.33 516.248 764.465 516.189 764.552
C 514.611 768.716 513.098 772.926 511.464 777.071 Z"
opacity="1" fill="rgb(47,90,130)" fill-rule="evenodd" />
<path d="
M 496.234 674.738
C 498.981 674.643 501.752 674.893 504.505 674.912
C 511.861 674.963 524.657 672.481 528.111 681.238
C 530.84 688.156 526.334 695.411 519.698 697.683
C 517.959 698.278 515.865 698.882 514.012 698.791
C 513.136 698.748 512.078 697.756 512.263 696.923
C 514.314 696.483 516.415 695.965 517.877 694.356
C 521.271 690.623 521.265 683.008 517.332 679.672
C 515.145 677.817 512.632 677.557 509.894 677.931
C 508.82 680.613 509.624 685.11 509.624 687.997
C 509.626 693.809 509.669 699.616 509.732 705.427
C 509.764 708.374 509.425 711.683 510.264 714.536
C 511.65 715.533 513.401 715.473 514.985 715.977
C 515.352 716.445 515.398 717.063 515.326 717.648
C 510.914 717.308 506.431 717.273 502.002 717.322
C 500.185 717.342 498.03 717.868 496.258 717.596
C 496.238 717.18 495.948 716.196 496.285 715.86
C 497.328 714.823 499.452 715.36 500.551 714.192
C 501.454 711.616 500.879 708.004 500.88 705.304
C 500.882 699.201 500.903 693.099 500.915 686.996
C 500.92 684.29 501.688 680.005 500.219 677.615
C 499.153 676.667 497.257 677.177 496.349 676.349
C 496.066 676.091 496.236 675.017 496.234 674.738 Z"
opacity="1" fill="rgb(52,94,132)" fill-rule="evenodd" />
<path d="
M 510.885 355.49
C 512.96 352.323 516.622 350.126 519.167 347.314
C 525.388 340.439 531.535 333.491 537.703 326.567
C 539.451 324.606 541.358 322.737 543.258 320.924
C 544.114 320.107 545.391 319.137 545.87 318.036
C 546.057 317.213 545.747 316.365 545.866 315.524
C 547.454 313.005 550.921 311.537 551.693 308.42
C 552.634 304.621 546.91 301.489 544.163 300.336
C 539.396 298.334 534.268 297.88 529.145 297.79
C 526.675 297.746 523.841 298.233 521.436 297.552
C 519.127 296.899 518.016 294.143 517.94 291.969
C 518.693 290.979 519.911 290.82 521.068 290.535
C 523.67 289.893 526.336 289.358 528.971 288.867
C 538.342 287.121 548.395 286.061 557.386 290.137
C 559.495 291.093 561.497 292.379 563.334 293.777
C 564.347 294.548 565.468 295.741 566.683 296.137
C 567.474 296.238 568.277 296.21 569.074 296.234
C 570.737 297.978 572.041 300.114 573.671 301.913
C 576.115 304.61 578.815 306.875 581.555 309.237
C 582.367 310.605 581.769 312.852 582.18 314.43
C 582.975 317.481 585.388 321.433 588.68 322.294
C 589.804 322.589 591.087 322.191 592.227 322.133
C 593.507 322.948 594.46 324.277 595.506 325.361
C 597.153 327.066 598.937 328.53 600.765 330.026
C 601.915 330.966 603.118 331.901 602.859 333.499
C 602.275 335.371 600.372 336.597 599.042 337.938
C 596.122 340.882 593.159 343.777 590.14 346.62
C 588.904 347.784 587.361 349.902 585.526 349.918
C 584.347 349.576 583.406 348.35 582.602 347.485
C 581.105 345.874 579.602 344.268 578.038 342.721
C 577.221 341.913 575.975 341.005 575.548 339.902
C 575.201 339.004 575.829 337.653 575.929 336.742
C 576.083 335.333 575.657 334.235 574.824 333.11
C 574.163 332.218 573.374 331.368 572.472 330.714
C 565.604 325.74 558.127 335.594 553.645 339.944
C 552.324 341.227 550.952 342.456 549.635 343.745
C 543.206 350.143 536.493 356.259 530.15 362.745
C 528.524 364.407 525.238 368.861 522.614 368.169
C 522.926 364.731 527.838 361.366 530.152 359.083
C 536.878 352.45 543.787 345.982 550.436 339.273
C 552.563 337.126 554.694 334.973 556.875 332.88
C 557.462 332.317 559.202 331.198 559.065 330.327
C 556.105 327.612 553.396 324.655 550.378 321.998
C 549.642 321.35 548.488 319.52 547.521 319.809
C 544.774 323.188 541.508 326.15 538.598 329.392
C 534.226 334.263 530.018 339.27 525.558 344.062
C 523.222 346.57 520.792 348.984 518.403 351.44
C 516.414 353.486 514.607 355.808 512.3 357.506
C 511.595 357.512 511.191 357.118 510.685 356.664
C 510.683 355.794 510.592 356.18 510.885 355.49 Z
M 523.989 292.994
C 526.048 293.918 529.735 292.872 532.024 292.982
C 538.923 293.312 545.959 295.489 551.025 300.35
C 552.833 302.084 555.285 305.245 554.768 307.955
C 554.101 311.452 550.606 313.644 549.138 316.692
C 549.777 317.597 550.99 318.223 551.794 319.016
C 553.701 320.895 555.512 322.856 557.629 324.5
C 559.153 325.683 560.168 327.493 561.718 328.633
C 562.767 328.661 563.564 327.721 564.41 327.218
C 565.547 326.543 566.81 325.961 568.148 325.867
C 569.77 325.754 571.21 326.675 572.487 327.551
C 575.612 329.695 577.309 332.053 578.966 335.366
C 579.795 336.456 580.27 335.038 580.263 334.208
C 578.767 329.799 572.32 324.579 567.54 324.814
C 566.112 324.884 564.7 325.53 563.493 326.261
C 563.03 326.542 562.219 327.284 561.642 326.923
C 557.706 324.461 554.542 319.913 551.306 316.651
C 552.129 315.008 553.626 313.584 554.955 312.336
C 555.189 312.116 557.127 310.053 557.229 310.399
C 557.339 310.769 556.814 311.517 556.649 311.819
C 556.087 312.851 555.227 314.266 555.259 315.479
C 555.337 318.378 558.979 321.228 560.83 323.089
C 561.503 323.765 561.807 324.913 562.495 325.473
C 565.353 323.413 568.58 321.934 571.45 319.895
C 571.561 320.449 571.454 321.136 571.665 321.664
C 572.134 322.834 573.947 323.762 574.752 324.743
C 576.313 326.646 577.806 328.607 579.374 330.504
C 579.937 331.184 580.982 333.403 581.77 333.629
C 582.339 333.547 582.679 332.524 583.074 332.098
C 584.438 330.629 586.172 329.598 587.616 328.226
C 588.044 327.819 589.739 327.291 589.278 326.487
C 588.105 326.474 586.912 327.08 585.729 326.684
C 579.144 324.48 578.33 316.78 574.479 312.17
C 572.341 309.611 569.63 307.401 567.231 305.089
C 564.616 302.569 562.111 299.619 558.994 297.7
C 555.34 295.449 551.556 294.029 547.691 292.24
C 549.764 291.603 552.614 293.07 554.542 293.806
C 561.484 296.456 566.855 302.309 572.076 307.378
C 573.484 308.745 574.794 310.297 576.359 311.491
C 576.881 311.889 577.961 312.05 578.236 312.697
C 578.574 313.494 578.366 314.656 578.573 315.51
C 579.252 318.319 580.95 321.169 582.882 323.291
C 583.728 324.219 584.724 325.163 585.818 325.788
C 586.137 325.97 587.067 326.261 587.101 325.561
C 587.121 325.153 586.325 324.664 586.066 324.429
C 585.044 323.503 583.798 322.702 582.952 321.597
C 580.607 318.533 579.086 314.962 579.306 311.095
C 577.127 310.568 575.853 308.734 574.326 307.192
C 571.483 304.323 568.767 301.203 565.487 298.81
C 561.836 296.147 558.317 293.435 554.077 291.733
C 544.892 288.045 533.495 289.66 524.44 292.912
C 524.29 292.94 524.139 292.967 523.989 292.994 Z
M 578.291 338.562
C 578.137 339.674 579.213 340.313 579.939 341.047
C 581.784 342.912 583.675 345.564 586.155 346.605
C 587.427 346.368 588.768 344.534 589.638 343.637
C 592.007 341.191 594.362 338.694 596.809 336.325
C 597.792 335.373 599.545 334.327 599.971 332.984
C 598.807 331.847 597.177 331.141 595.94 330.041
C 594.298 328.583 592.856 326.308 590.685 325.688
C 591.362 329.123 596.534 330.32 597.576 333.395
C 597.025 333.928 596.225 334.727 595.41 334.645
C 593.131 333.468 590.713 330.963 589.487 328.718
C 587.331 329.92 585.523 332.107 583.841 333.878
C 583.314 334.433 582.085 335.276 582.004 336.028
C 582.947 338.118 585.401 339.858 586.652 341.848
C 587.619 342.265 589.21 340.444 589.882 340.954
C 590.037 341.072 590.37 341.462 590.259 341.739
C 590.108 342.112 589.615 342.114 589.331 342.286
C 588.403 342.848 587.158 345.157 586.032 345.157
C 585.539 345.157 584.791 344.214 584.427 343.922
C 582.718 342.551 580.872 340.884 579.71 339.016
C 579.946 338.275 580.373 337.621 580.481 336.842
C 579.484 337.02 578.976 337.929 578.291 338.562 Z"
opacity="1" fill="rgb(25,48,71)" fill-rule="evenodd" />
<path d="
M 516.972 356.606
C 522.129 350.292 528.293 344.817 533.573 338.604
C 536.834 334.767 540.135 331.003 543.739 327.481
C 545.151 326.101 546.494 324.261 548.148 323.188
C 548.793 324.501 545.266 327.51 544.434 328.447
C 539.967 333.481 535.322 338.362 530.83 343.375
C 527.439 347.16 523.906 350.85 520.233 354.359
C 519.784 354.788 517.347 357.767 516.746 357.085
C 516.821 356.925 516.896 356.766 516.972 356.606 Z"
opacity="0.996" fill="rgb(76,90,102)" fill-rule="evenodd" />
<path d="
M 540.691 340.199
C 541.848 339.726 541.758 341.405 541.258 341.99
C 539.809 343.684 538.146 345.362 536.588 346.967
C 532.478 351.2 528.358 355.493 523.976 359.444
C 522.669 360.622 519.096 363.491 520.477 365.505
C 519.57 365.119 518.892 364.459 518.591 363.507
C 519.459 361.055 522.963 358.716 524.747 356.83
C 529.966 351.313 535.14 345.355 540.691 340.199 Z"
opacity="0.996" fill="rgb(107,140,144)" fill-rule="evenodd" />
<path d="
M 540.691 340.199
C 542.876 337.604 545.529 335.378 547.836 332.888
C 549.575 331.012 551.275 328.364 553.508 327.081
C 554.635 327.957 557.148 329.534 557.527 330.931
C 555.37 333.755 552.157 336.113 549.616 338.608
C 543.147 344.962 536.61 351.257 530.204 357.68
C 528.142 359.748 526.093 361.84 523.964 363.839
C 522.982 364.76 521.89 365.929 520.477 365.505
C 519.096 363.491 522.669 360.622 523.976 359.444
C 528.358 355.493 532.478 351.2 536.588 346.967
C 538.146 345.362 539.809 343.684 541.258 341.99
C 541.758 341.405 541.848 339.726 540.691 340.199 Z"
opacity="1" fill="rgb(25,54,82)" fill-rule="evenodd" />
<path d="
M 528.66 528.213
C 538.129 528.388 547.58 528.877 557.052 528.574
C 559.704 528.489 562.349 528.306 565.002 528.243
C 565.985 528.219 567.575 527.845 568.426 528.366
C 568.415 529.519 569.051 531.126 568.438 532.181
C 566.279 532.73 563.844 533.269 562.339 535.001
C 562.286 539.232 565.871 543.916 567.723 547.582
C 571.625 555.307 575.969 562.809 579.944 570.498
C 581.191 572.912 582.719 575.26 583.78 577.758
C 584.23 577.792 584.939 575.883 585.142 575.464
C 586.321 573.024 587.612 570.638 588.859 568.233
C 592.881 560.478 597.125 552.78 600.869 544.888
C 602.212 542.059 604.67 538.397 603.854 535.12
C 602.497 533.308 599.545 532.85 597.464 532.47
C 596.88 531.593 596.939 529.363 597.338 528.407
C 603.283 528.139 609.298 528.826 615.256 528.853
C 620.222 528.875 625.163 528.21 630.132 528.195
C 630.146 529.641 630.174 531.062 629.86 532.487
C 629.097 533.136 626.708 533.072 625.691 533.318
C 623.278 533.902 621.019 534.982 619.199 536.682
C 613.249 542.236 609.397 550.852 605.462 557.876
C 601.742 564.516 597.763 571.017 594.069 577.675
C 592.504 580.496 590.281 583.434 589.367 586.552
C 588.797 588.499 588.993 590.754 588.976 592.761
C 588.948 596.044 588.934 599.327 588.935 602.61
C 588.936 608.593 588.971 614.567 589.14 620.547
C 589.206 622.869 588.82 626.058 590.704 627.793
C 593.134 630.034 596.871 629.475 599.861 630.289
C 600.532 631.692 599.911 633.225 600.151 634.67
C 597.505 634.321 594.676 634.527 592.003 634.422
C 584.315 634.12 576.687 634.095 568.997 634.249
C 566.244 634.304 563.479 634.328 560.729 634.477
C 559.544 634.541 557.671 634.969 556.612 634.394
C 556.612 633.022 556.595 631.65 556.7 630.281
C 559.432 629.869 563.038 629.963 565.217 628.028
C 567.304 626.175 567.308 622.871 567.357 620.302
C 567.47 614.369 567.432 608.431 567.414 602.497
C 567.405 599.364 567.362 596.232 567.335 593.1
C 567.321 591.529 567.599 589.673 567.149 588.151
C 566.659 586.496 565.494 584.866 564.662 583.358
C 563.219 580.74 561.906 578.05 560.466 575.43
C 556.162 567.603 552.028 559.682 547.679 551.88
C 545.746 548.412 543.791 544.963 541.766 541.548
C 540.382 539.215 538.854 536.727 536.594 535.141
C 534.273 533.512 531.558 533.076 528.847 532.477
C 528.421 531.088 528.551 529.642 528.66 528.213 Z"
opacity="1" fill="rgb(53,100,145)" fill-rule="evenodd" />
<path d="
M 540.914 674.803
C 542.43 674.227 544.86 674.877 546.505 674.903
C 550.667 674.968 554.985 674.395 559.118 674.711
C 559.236 675.275 559.484 676.077 559.278 676.631
C 557.844 676.646 556.456 677.021 555.42 678.052
C 554.193 680.25 554.762 683.675 554.757 686.116
C 554.746 692.078 554.746 698.04 554.761 704.002
C 554.766 706.096 554.053 710.076 555.255 711.88
C 556.458 713.686 559.08 713.458 560.976 713.469
C 563.465 713.484 567.047 713.845 569.054 712.077
C 570.393 710.897 570.977 708.932 571.656 707.342
C 572.318 707.485 572.981 707.486 573.617 707.72
C 573.578 709.808 572.816 712.081 572.422 714.136
C 572.221 715.191 572.219 716.536 571.685 717.486
C 564.054 717.963 556.155 717.329 548.498 717.27
C 546.853 717.257 545.199 717.248 543.557 717.356
C 543.079 717.387 541.903 717.571 541.53 717.145
C 541.291 716.872 541.476 716.219 541.519 715.956
C 542.703 715.258 544.403 715.27 545.294 714.195
C 546.286 711.345 545.803 707.771 545.805 704.794
C 545.809 698.862 545.86 692.928 545.927 686.996
C 545.954 684.588 546.836 679.696 545.18 677.748
C 544.346 677.107 543.314 676.879 542.302 676.65
C 542.05 676.593 540.996 676.477 540.846 676.274
C 540.699 676.074 540.899 674.956 540.914 674.803 Z"
opacity="1" fill="rgb(51,96,135)" fill-rule="evenodd" />
<path d="
M 565.58 450.662
C 564.06 450.333 561.35 450.842 560.121 449.791
C 560.899 449.608 559.921 449.082 559.557 448.887
C 558.311 448.219 556.964 447.779 555.721 447.09
C 552.691 445.413 548.908 443.373 546.845 440.488
C 542.598 434.549 544.9 426.807 547.067 420.482
C 547.694 418.653 548.153 417.036 549.588 415.641
C 549.286 417.326 548.405 418.937 547.982 420.616
C 547.143 423.942 546.557 427.359 546.201 430.766
C 545.978 432.898 545.814 435.399 546.635 437.437
C 547.932 440.663 552.214 443.548 555.106 445.262
C 557.524 446.908 560.107 448.495 562.767 449.715
C 563.691 450.138 564.672 450.128 565.58 450.662 Z"
opacity="1" fill="rgb(50,67,89)" fill-rule="evenodd" />
<path d="
M 549.778 752.826
C 557.434 753.607 565.471 753.226 573.166 753.118
C 575.244 753.088 577.349 752.681 579.422 752.824
C 579.148 755.07 579.21 757.444 579.231 759.708
C 579.235 760.141 579.429 761.84 579.035 762.018
C 578.41 762.03 577.822 762.007 577.223 761.825
C 576.502 760.417 576.597 758.52 575.585 757.279
C 571.519 756.597 567.377 756.806 563.28 756.837
C 563.972 761.772 563.062 767.119 563.3 772.118
C 567.146 771.842 571.072 772.003 574.931 771.808
C 576.067 770.724 575.297 767.518 577.895 768.619
C 577.851 771.072 577.635 773.538 577.719 775.998
C 577.764 777.357 578.103 778.953 577.777 780.282
C 575.672 780.599 575.597 777.85 574.799 776.306
C 573.931 775.673 572.547 775.903 571.508 775.868
C 568.785 775.777 566.014 775.764 563.295 775.931
C 562.943 779.717 563.248 783.698 563.3 787.5
C 563.324 789.254 563.165 791.347 564.071 792.915
C 565.417 793.524 567.086 793.517 568.522 793.883
C 569.007 794.306 568.829 795.188 568.859 795.796
C 564.361 794.968 559.081 795.356 554.508 795.42
C 553.69 795.431 550.467 796.183 549.948 795.481
C 549.699 795.143 549.813 794.208 549.823 793.836
C 550.985 793.474 552.4 793.49 553.481 792.961
C 555.182 791.067 554.453 786.582 554.44 784.215
C 554.405 777.399 554.54 770.597 554.556 763.782
C 554.561 761.646 555.122 757.679 553.868 755.922
C 552.248 754.487 549.286 755.687 549.778 752.826 Z"
opacity="1" fill="rgb(49,93,131)" fill-rule="evenodd" />
<path d="
M 552.284 414.166
C 553.458 412.466 556.268 411.452 558.127 410.638
C 564.724 407.751 572.278 406.601 577.407 412.685
C 579.585 415.27 581.189 418.502 582.283 421.657
C 582.546 422.413 583.691 424.172 582.845 424.907
C 582.672 425.056 581.899 422.888 581.791 422.66
C 581.04 421.072 580.185 419.464 579.278 417.948
C 576.466 413.247 573.404 409.453 567.484 409.768
C 563.619 409.973 559.908 411.744 556.317 413.02
C 555.219 413.41 553.429 414.661 552.284 414.166 Z"
opacity="0.996" fill="rgb(27,43,66)" fill-rule="evenodd" />
<path d="
M 583.976 675.599
C 584.005 675.416 584.033 675.234 584.061 675.051
C 584.837 674.538 585.738 674.788 586.65 674.834
C 588.385 674.921 590.124 674.914 591.861 674.918
C 598.949 674.935 606.075 674.532 613.147 674.632
C 613.68 676.724 613.408 681.41 612.737 683.456
C 612.172 683.845 611.589 683.768 611.021 683.456
C 610.62 681.969 610.445 680.323 609.363 679.15
C 607.322 677.601 602.888 678.318 600.43 678.296
C 599.303 678.285 598.406 678.238 597.54 678.991
C 596.913 683.553 597.254 688.585 597.38 693.188
C 597.968 693.634 599.75 693.26 600.498 693.251
C 603.147 693.217 606.232 693.573 608.809 692.88
C 609.146 691.938 609.153 690.894 609.635 690.01
C 610.356 689.846 611.193 689.694 611.91 689.93
C 611.576 693.702 611.831 697.648 611.336 701.375
C 609.022 701.747 609.466 698.482 608.601 697.148
C 604.894 696.653 601.154 696.809 597.438 696.996
C 597.324 700.559 597.311 704.128 597.35 707.696
C 597.369 709.433 597.202 711.215 598.392 712.625
C 599.491 713.62 601.804 713.259 603.198 713.263
C 605.508 713.27 609.62 713.751 611.452 712.069
C 612.601 711.013 613.103 709.221 613.405 707.747
C 614.741 707.253 615.361 708.252 615.235 709.381
C 614.937 712.042 614.128 714.657 613.718 717.297
C 611.603 717.875 608.697 717.318 606.499 717.301
C 601.167 717.26 595.83 717.151 590.498 717.185
C 588.884 717.195 587.271 717.235 585.66 717.339
C 585.311 717.361 584.384 717.536 584.088 717.328
C 583.785 717.115 584.045 716.042 584.08 715.855
C 585.275 715.109 586.86 715.178 587.918 714.242
C 588.966 711.683 588.377 708.015 588.404 705.283
C 588.466 698.911 588.585 692.538 588.603 686.162
C 588.609 683.882 589.437 679.038 587.617 677.304
C 586.604 676.801 585.184 676.719 584.069 676.501
C 583.933 675.928 583.969 676.228 583.976 675.599 Z"
opacity="1" fill="rgb(51,94,131)" fill-rule="evenodd" />
<path d="
M 588.955 760.103
C 589.454 757.407 589.301 754.312 590.369 751.785
C 591.581 752.015 592.559 752.842 593.753 753.022
C 597.353 753.564 601.36 753.012 605.004 753.051
C 612.678 753.133 620.433 753.492 628.005 752.176
C 627.973 754.416 627.638 756.685 627.645 758.949
C 627.648 759.87 627.886 761.152 627.286 761.928
C 626.695 761.917 626.109 761.962 625.518 761.962
C 625.228 760.541 625.098 759.121 624.226 757.916
C 623.27 756.989 621.806 757.174 620.557 757.13
C 617.962 757.037 615.368 756.983 612.786 757.145
C 612.676 765.264 612.744 773.382 612.752 781.503
C 612.756 784.421 611.842 789.318 613.255 791.95
C 614.217 793.74 616.236 793.492 617.912 793.901
C 617.926 794.143 618.119 795.573 617.86 795.615
C 615.471 796 612.453 795.388 610.003 795.392
C 606.572 795.397 602.598 796.072 599.235 795.617
C 598.597 792.447 601.855 794.1 603.257 792.276
C 604.361 789.23 603.719 785.198 603.721 782
C 603.723 776.393 603.694 770.785 603.752 765.178
C 603.778 762.532 603.483 759.658 603.879 757.048
C 600.468 757.263 596.687 756.469 593.323 757.245
C 591.51 758.42 591.728 760.649 590.368 761.949
C 589.839 761.907 589.381 761.777 588.879 761.607
C 588.871 761.094 588.904 760.612 588.955 760.103 Z"
opacity="1" fill="rgb(49,94,134)" fill-rule="evenodd" />
<path d="
M 624.441 680.094
C 624.923 678.033 625.045 675.835 625.317 673.736
C 626.838 673.856 628.223 674.571 629.765 674.691
C 634.818 675.083 639.943 674.761 645.006 674.809
C 651.01 674.866 657.304 675.271 663.182 673.853
C 663.492 674.385 663.166 675.476 663.123 676.071
C 662.957 678.383 663.257 681.054 662.745 683.284
C 662.2 683.604 661.595 683.739 660.969 683.688
C 660.676 682.422 660.552 680.968 659.687 679.928
C 658.85 678.921 657.536 678.79 656.316 678.706
C 653.641 678.522 650.901 678.601 648.22 678.607
C 647.756 687.137 648.128 695.694 648.105 704.235
C 648.099 706.512 648.158 708.785 648.201 711.061
C 648.221 712.105 648.025 713.494 648.591 714.406
C 650.026 715.228 651.641 715.364 653.215 715.8
C 653.591 716.185 653.364 716.877 653.31 717.384
C 651.403 717.761 648.967 717.21 647.004 717.202
C 642.818 717.187 638.645 717.415 634.467 717.447
C 634.187 715.014 636.518 715.417 638.227 714.701
C 638.975 713.957 638.924 712.827 638.941 711.828
C 638.978 709.619 639.064 707.416 639.073 705.204
C 639.096 699.541 639.093 693.878 639.104 688.216
C 639.11 685.1 638.854 681.813 639.276 678.724
C 635.529 678.816 631.558 678.364 627.871 679.194
C 626.732 680.084 626.484 682.078 625.817 683.331
C 625.165 683.447 624.741 683.415 624.188 683.054
C 624.117 682.029 624.256 681.098 624.441 680.094 Z"
opacity="1" fill="rgb(52,95,135)" fill-rule="evenodd" />
<path d="
M 646.212 605.26
C 647.362 604.908 649.819 604.1 650.804 605.135
C 651.564 607.504 651.748 610.01 652.432 612.408
C 654.014 617.954 657.048 622.528 662.176 625.317
C 671.372 630.32 686.727 628.696 689.387 616.819
C 689.845 614.774 689.898 612.681 689.636 610.605
C 688.426 601.027 679.277 594.758 672.051 589.602
C 659.892 580.926 647.429 569.975 648.482 553.63
C 648.659 550.878 649.275 548.045 650.261 545.471
C 656.437 529.338 674.98 524.815 690.546 526.577
C 694.924 527.073 700.893 527.593 704.581 530.145
C 705.252 531.499 704.679 534.099 704.665 535.606
C 704.633 539.072 704.611 542.536 704.616 546.002
C 704.618 547.871 704.929 549.957 704.247 551.733
C 703.233 552.042 701.315 552.054 700.342 551.583
C 699.763 549.681 699.531 547.717 698.829 545.844
C 697.255 541.646 694.319 538.431 690.314 536.43
C 680.649 531.603 666.496 536.016 666.536 548.253
C 666.57 558.518 677.975 564.915 685.332 570.191
C 696.854 578.454 707.733 588.609 708.2 603.794
C 708.279 606.35 708.067 608.901 707.509 611.4
C 703.111 631.074 680.444 639.204 662.296 635.771
C 658.371 635.029 654.604 634.1 650.905 632.558
C 649.549 631.993 647.789 631.245 646.884 630.038
C 645.994 627.802 646.424 624.093 646.368 621.689
C 646.242 616.231 645.867 610.713 646.212 605.26 Z"
opacity="1" fill="rgb(53,99,144)" fill-rule="evenodd" />
<path d="
M 674.181 674.657
C 683.838 675.265 693.5 674.664 703.159 674.617
C 703.609 675.244 703.321 676.238 703.289 676.986
C 703.205 678.913 703.575 681.837 702.746 683.606
C 702.239 683.758 701.745 683.707 701.226 683.665
C 700.62 682.192 700.591 680.549 699.568 679.269
C 696.32 677.774 691.7 678.335 688.196 678.434
C 687.428 679.65 687.753 681.585 687.736 683
C 687.696 686.396 687.871 689.827 687.703 693.216
C 690.056 693.36 692.508 693.186 694.867 693.152
C 695.962 693.136 697.382 693.266 698.419 692.877
C 699.7 691.487 699.556 689.444 701.956 689.868
C 701.802 692.93 701.668 695.994 701.513 699.057
C 701.457 700.186 701.857 701.887 700.194 701.442
C 699.173 700.3 699.436 698.517 698.623 697.237
C 695.067 696.704 691.439 696.675 687.846 696.952
C 687.037 700.314 687.695 704.735 687.707 708.202
C 687.712 709.446 687.454 711.316 688.33 712.317
C 689.129 713.23 690.255 713.263 691.385 713.317
C 693.988 713.442 699.248 714.227 701.271 712.182
C 702.483 710.958 702.902 708.903 703.474 707.34
C 704.198 707.481 704.67 707.638 705.154 708.213
C 705.335 710.407 704.499 713.025 704.034 715.165
C 703.929 715.649 703.859 717.115 703.475 717.368
C 696.012 717.084 688.465 717.122 680.996 717.204
C 679.499 717.22 678 717.256 676.505 717.33
C 675.98 717.357 674.91 717.642 674.439 717.421
C 673.981 717.207 674.209 716.103 674.231 715.764
C 675.542 715.17 677.395 715.294 678.44 714.24
C 679.586 710.829 678.796 706.076 678.8 702.5
C 678.806 697.334 678.785 692.167 678.762 687.001
C 678.75 684.441 679.067 681.615 678.631 679.088
C 678.202 676.592 675.872 677.465 674.42 676.295
C 673.996 675.953 674.182 675.099 674.181 674.657 Z"
opacity="1" fill="rgb(54,96,134)" fill-rule="evenodd" />
<path d="
M 1003.502 0.013
C 1009.002 0.007 1014.506 -0.034 1020.006 0.018
C 1019.724 0.891 1017.247 0.444 1016.495 0.439
C 1013.33 0.42 1010.164 0.414 1007 0.431
C 1006.128 0.435 1004.016 0.805 1003.502 0.013 Z"
opacity="1" fill="rgb(141,169,145)" fill-rule="evenodd" />

</svg>